<svg xmlns="http://www.w3.org/2000/svg" width="220" height="220" viewBox="0 0 220 220">
  <defs>
    <g id="mandala">
      <circle cx="0" cy="0" r="50" fill="#a50034"/>
      <circle cx="0" cy="0" r="48" fill="none" stroke="#f2b7c9" stroke-width="5" opacity=".72"/>
      <circle cx="0" cy="0" r="38" fill="none" stroke="#6f0029" stroke-width="4" opacity=".82"/>
      <circle cx="0" cy="0" r="29" fill="none" stroke="#d44772" stroke-width="3" opacity=".78"/>
      <circle cx="0" cy="0" r="18" fill="none" stroke="#f2b7c9" stroke-width="3.5" opacity=".78"/>

      <g fill="#f2b7c9" opacity=".78">
        <circle cx="0" cy="-43" r="2.2"/>
        <circle cx="15" cy="-40" r="2.2"/>
        <circle cx="29" cy="-31" r="2.2"/>
        <circle cx="40" cy="-16" r="2.2"/>
        <circle cx="43" cy="0" r="2.2"/>
        <circle cx="40" cy="16" r="2.2"/>
        <circle cx="29" cy="31" r="2.2"/>
        <circle cx="15" cy="40" r="2.2"/>
        <circle cx="0" cy="43" r="2.2"/>
        <circle cx="-15" cy="40" r="2.2"/>
        <circle cx="-29" cy="31" r="2.2"/>
        <circle cx="-40" cy="16" r="2.2"/>
        <circle cx="-43" cy="0" r="2.2"/>
        <circle cx="-40" cy="-16" r="2.2"/>
        <circle cx="-29" cy="-31" r="2.2"/>
        <circle cx="-15" cy="-40" r="2.2"/>
      </g>

      <g fill="#6f0029" opacity=".88">
        <ellipse cx="0" cy="-27" rx="4.5" ry="10"/>
        <ellipse cx="0" cy="-27" rx="4.5" ry="10" transform="rotate(30)"/>
        <ellipse cx="0" cy="-27" rx="4.5" ry="10" transform="rotate(60)"/>
        <ellipse cx="0" cy="-27" rx="4.5" ry="10" transform="rotate(90)"/>
        <ellipse cx="0" cy="-27" rx="4.5" ry="10" transform="rotate(120)"/>
        <ellipse cx="0" cy="-27" rx="4.5" ry="10" transform="rotate(150)"/>
        <ellipse cx="0" cy="-27" rx="4.5" ry="10" transform="rotate(180)"/>
        <ellipse cx="0" cy="-27" rx="4.5" ry="10" transform="rotate(210)"/>
        <ellipse cx="0" cy="-27" rx="4.5" ry="10" transform="rotate(240)"/>
        <ellipse cx="0" cy="-27" rx="4.5" ry="10" transform="rotate(270)"/>
        <ellipse cx="0" cy="-27" rx="4.5" ry="10" transform="rotate(300)"/>
        <ellipse cx="0" cy="-27" rx="4.5" ry="10" transform="rotate(330)"/>
      </g>

      <g fill="#d44772" opacity=".9">
        <ellipse cx="0" cy="-12" rx="3" ry="7"/>
        <ellipse cx="0" cy="-12" rx="3" ry="7" transform="rotate(45)"/>
        <ellipse cx="0" cy="-12" rx="3" ry="7" transform="rotate(90)"/>
        <ellipse cx="0" cy="-12" rx="3" ry="7" transform="rotate(135)"/>
        <ellipse cx="0" cy="-12" rx="3" ry="7" transform="rotate(180)"/>
        <ellipse cx="0" cy="-12" rx="3" ry="7" transform="rotate(225)"/>
        <ellipse cx="0" cy="-12" rx="3" ry="7" transform="rotate(270)"/>
        <ellipse cx="0" cy="-12" rx="3" ry="7" transform="rotate(315)"/>
      </g>

      <circle cx="0" cy="0" r="6" fill="#f2b7c9" opacity=".9"/>
      <circle cx="0" cy="0" r="3" fill="#6f0029"/>
    </g>

    <g id="diamond">
      <path d="M0-35 35 0 0 35-35 0Z" fill="#7d002e" opacity=".78"/>
      <path d="M0-27 27 0 0 27-27 0Z" fill="none" stroke="#f2b7c9" stroke-width="4" opacity=".76"/>
      <path d="M0-15 15 0 0 15-15 0Z" fill="#d44772" opacity=".82"/>
      <path d="M-22 0c7-7 15-7 22 0 7-7 15-7 22 0" fill="none" stroke="#f2b7c9" stroke-width="2.5" stroke-linecap="round" opacity=".62"/>
      <circle cx="0" cy="0" r="4" fill="#f2b7c9" opacity=".84"/>
    </g>

    <pattern id="tile" width="110" height="110" patternUnits="userSpaceOnUse">
      <rect width="110" height="110" fill="#a50034"/>
      <g fill="none" stroke="#f2b7c9" stroke-width="2.4" opacity=".42">
        <path d="M0 55C19 22 36 22 55 55s36 33 55 0"/>
        <path d="M55 0c33 19 33 36 0 55s-33 36 0 55"/>
      </g>
      <use href="#mandala" x="55" y="55"/>
      <use href="#mandala" x="0" y="0"/>
      <use href="#mandala" x="110" y="0"/>
      <use href="#mandala" x="0" y="110"/>
      <use href="#mandala" x="110" y="110"/>
      <use href="#diamond" x="55" y="0" transform="scale(.58)"/>
      <use href="#diamond" x="55" y="110" transform="scale(.58)"/>
      <use href="#diamond" x="0" y="55" transform="scale(.58)"/>
      <use href="#diamond" x="110" y="55" transform="scale(.58)"/>
    </pattern>
  </defs>

  <rect width="220" height="220" fill="url(#tile)"/>
</svg>
